<mxfile host="app.diagrams.net" agent="Mozilla/5.0 (Windows NT 10.0; Win64; x64) AppleWebKit/537.36 (KHTML, like Gecko) Chrome/135.0.0.0 Safari/537.36" version="26.2.12">
  <diagram name="第 1 页" id="E03upOpKLHZUmihZPrJ2">
    <mxGraphModel dx="1228" dy="661" grid="1" gridSize="10" guides="1" tooltips="1" connect="1" arrows="1" fold="1" page="1" pageScale="1" pageWidth="827" pageHeight="1169" math="0" shadow="0">
      <root>
        <mxCell id="0" />
        <mxCell id="1" parent="0" />
        <mxCell id="Y9LZRN9tJQCiaIKneZ9w-1" value="&lt;font style=&quot;font-size: 18px;&quot;&gt;查看工作票&lt;/font&gt;" style="swimlane;html=1;childLayout=stackLayout;startSize=20;rounded=0;shadow=0;labelBackgroundColor=none;strokeWidth=1;fontFamily=Verdana;fontSize=8;align=center;" vertex="1" parent="1">
          <mxGeometry x="60" y="30" width="640" height="1240" as="geometry" />
        </mxCell>
        <mxCell id="Y9LZRN9tJQCiaIKneZ9w-2" value="接收请求" style="swimlane;html=1;startSize=20;" vertex="1" parent="Y9LZRN9tJQCiaIKneZ9w-1">
          <mxGeometry y="20" width="160" height="1220" as="geometry">
            <mxRectangle y="20" width="40" height="730" as="alternateBounds" />
          </mxGeometry>
        </mxCell>
        <mxCell id="Y9LZRN9tJQCiaIKneZ9w-3" value="&lt;font style=&quot;font-size: 12px;&quot;&gt;开始&lt;/font&gt;" style="rounded=1;whiteSpace=wrap;html=1;shadow=0;labelBackgroundColor=none;strokeWidth=1;fontFamily=Verdana;fontSize=8;align=center;" vertex="1" parent="Y9LZRN9tJQCiaIKneZ9w-2">
          <mxGeometry x="20" y="65" width="100" height="60" as="geometry" />
        </mxCell>
        <mxCell id="Y9LZRN9tJQCiaIKneZ9w-67" style="edgeStyle=orthogonalEdgeStyle;rounded=0;orthogonalLoop=1;jettySize=auto;html=1;exitX=0.5;exitY=1;exitDx=0;exitDy=0;entryX=0.5;entryY=0;entryDx=0;entryDy=0;" edge="1" parent="Y9LZRN9tJQCiaIKneZ9w-2" source="Y9LZRN9tJQCiaIKneZ9w-8" target="Y9LZRN9tJQCiaIKneZ9w-66">
          <mxGeometry relative="1" as="geometry" />
        </mxCell>
        <mxCell id="Y9LZRN9tJQCiaIKneZ9w-8" value="&lt;span style=&quot;font-size: 12px;&quot;&gt;根据主键查询&lt;/span&gt;&lt;div&gt;&lt;span style=&quot;font-size: 12px;&quot;&gt;工作票主记录数据&lt;/span&gt;&lt;/div&gt;" style="whiteSpace=wrap;html=1;fontSize=8;fontFamily=Verdana;rounded=0;shadow=0;labelBackgroundColor=none;strokeWidth=1;" vertex="1" parent="Y9LZRN9tJQCiaIKneZ9w-2">
          <mxGeometry x="20" y="160" width="100" height="60" as="geometry" />
        </mxCell>
        <mxCell id="Y9LZRN9tJQCiaIKneZ9w-28" style="edgeStyle=orthogonalEdgeStyle;rounded=0;orthogonalLoop=1;jettySize=auto;html=1;entryX=0.5;entryY=0;entryDx=0;entryDy=0;exitX=0.5;exitY=1;exitDx=0;exitDy=0;" edge="1" parent="Y9LZRN9tJQCiaIKneZ9w-2" source="Y9LZRN9tJQCiaIKneZ9w-3" target="Y9LZRN9tJQCiaIKneZ9w-8">
          <mxGeometry relative="1" as="geometry">
            <mxPoint x="70" y="220" as="sourcePoint" />
            <mxPoint x="70" y="160" as="targetPoint" />
          </mxGeometry>
        </mxCell>
        <mxCell id="Y9LZRN9tJQCiaIKneZ9w-66" value="&lt;span style=&quot;font-size: 12px;&quot;&gt;查询数据转换成响应对象&lt;/span&gt;" style="whiteSpace=wrap;html=1;fontSize=8;fontFamily=Verdana;rounded=0;shadow=0;labelBackgroundColor=none;strokeWidth=1;" vertex="1" parent="Y9LZRN9tJQCiaIKneZ9w-2">
          <mxGeometry x="20" y="260" width="100" height="60" as="geometry" />
        </mxCell>
        <mxCell id="Y9LZRN9tJQCiaIKneZ9w-4" value="工作票人员身份查询处理" style="swimlane;html=1;startSize=20;" vertex="1" parent="Y9LZRN9tJQCiaIKneZ9w-1">
          <mxGeometry x="160" y="20" width="160" height="1220" as="geometry" />
        </mxCell>
        <mxCell id="Y9LZRN9tJQCiaIKneZ9w-40" style="edgeStyle=orthogonalEdgeStyle;rounded=0;orthogonalLoop=1;jettySize=auto;html=1;exitX=0.5;exitY=1;exitDx=0;exitDy=0;entryX=0.5;entryY=0;entryDx=0;entryDy=0;" edge="1" parent="Y9LZRN9tJQCiaIKneZ9w-4" source="Y9LZRN9tJQCiaIKneZ9w-38" target="Y9LZRN9tJQCiaIKneZ9w-39">
          <mxGeometry relative="1" as="geometry" />
        </mxCell>
        <mxCell id="Y9LZRN9tJQCiaIKneZ9w-43" value="&lt;font style=&quot;font-size: 10px;&quot;&gt;是&lt;/font&gt;" style="edgeLabel;html=1;align=center;verticalAlign=middle;resizable=0;points=[];" vertex="1" connectable="0" parent="Y9LZRN9tJQCiaIKneZ9w-40">
          <mxGeometry x="-0.3569" y="2" relative="1" as="geometry">
            <mxPoint as="offset" />
          </mxGeometry>
        </mxCell>
        <mxCell id="Y9LZRN9tJQCiaIKneZ9w-46" style="edgeStyle=orthogonalEdgeStyle;rounded=0;orthogonalLoop=1;jettySize=auto;html=1;exitX=0;exitY=0.5;exitDx=0;exitDy=0;entryX=0.5;entryY=0;entryDx=0;entryDy=0;" edge="1" parent="Y9LZRN9tJQCiaIKneZ9w-4" source="Y9LZRN9tJQCiaIKneZ9w-38" target="Y9LZRN9tJQCiaIKneZ9w-44">
          <mxGeometry relative="1" as="geometry">
            <Array as="points">
              <mxPoint x="10" y="187" />
              <mxPoint x="10" y="460" />
              <mxPoint x="80" y="460" />
            </Array>
          </mxGeometry>
        </mxCell>
        <mxCell id="Y9LZRN9tJQCiaIKneZ9w-47" value="否" style="edgeLabel;html=1;align=center;verticalAlign=middle;resizable=0;points=[];" vertex="1" connectable="0" parent="Y9LZRN9tJQCiaIKneZ9w-46">
          <mxGeometry x="-0.9434" y="2" relative="1" as="geometry">
            <mxPoint as="offset" />
          </mxGeometry>
        </mxCell>
        <mxCell id="Y9LZRN9tJQCiaIKneZ9w-38" value="&lt;span style=&quot;font-size: 12px;&quot;&gt;工作票工作负责人ID不为空&lt;/span&gt;" style="rhombus;whiteSpace=wrap;html=1;rounded=0;shadow=0;labelBackgroundColor=none;strokeWidth=1;fontFamily=Verdana;fontSize=8;align=center;" vertex="1" parent="Y9LZRN9tJQCiaIKneZ9w-4">
          <mxGeometry x="30" y="150" width="100" height="75" as="geometry" />
        </mxCell>
        <mxCell id="Y9LZRN9tJQCiaIKneZ9w-42" style="edgeStyle=orthogonalEdgeStyle;rounded=0;orthogonalLoop=1;jettySize=auto;html=1;exitX=0.5;exitY=1;exitDx=0;exitDy=0;entryX=0.5;entryY=0;entryDx=0;entryDy=0;" edge="1" parent="Y9LZRN9tJQCiaIKneZ9w-4" source="Y9LZRN9tJQCiaIKneZ9w-39" target="Y9LZRN9tJQCiaIKneZ9w-41">
          <mxGeometry relative="1" as="geometry" />
        </mxCell>
        <mxCell id="Y9LZRN9tJQCiaIKneZ9w-39" value="&lt;span style=&quot;font-size: 12px;&quot;&gt;获取负责人身份证并sm4加密&lt;/span&gt;" style="whiteSpace=wrap;html=1;fontSize=8;fontFamily=Verdana;rounded=0;shadow=0;labelBackgroundColor=none;strokeWidth=1;" vertex="1" parent="Y9LZRN9tJQCiaIKneZ9w-4">
          <mxGeometry x="30" y="270" width="100" height="60" as="geometry" />
        </mxCell>
        <mxCell id="Y9LZRN9tJQCiaIKneZ9w-45" style="edgeStyle=orthogonalEdgeStyle;rounded=0;orthogonalLoop=1;jettySize=auto;html=1;exitX=0.5;exitY=1;exitDx=0;exitDy=0;" edge="1" parent="Y9LZRN9tJQCiaIKneZ9w-4" source="Y9LZRN9tJQCiaIKneZ9w-41" target="Y9LZRN9tJQCiaIKneZ9w-44">
          <mxGeometry relative="1" as="geometry" />
        </mxCell>
        <mxCell id="Y9LZRN9tJQCiaIKneZ9w-41" value="&lt;span style=&quot;font-size: 12px;&quot;&gt;负责人身份证密文赋值给工作票对象的对应字段&lt;/span&gt;" style="whiteSpace=wrap;html=1;fontSize=8;fontFamily=Verdana;rounded=0;shadow=0;labelBackgroundColor=none;strokeWidth=1;" vertex="1" parent="Y9LZRN9tJQCiaIKneZ9w-4">
          <mxGeometry x="30" y="374.5" width="100" height="60" as="geometry" />
        </mxCell>
        <mxCell id="Y9LZRN9tJQCiaIKneZ9w-49" style="edgeStyle=orthogonalEdgeStyle;rounded=0;orthogonalLoop=1;jettySize=auto;html=1;exitX=0.5;exitY=1;exitDx=0;exitDy=0;entryX=0.5;entryY=0;entryDx=0;entryDy=0;" edge="1" parent="Y9LZRN9tJQCiaIKneZ9w-4" source="Y9LZRN9tJQCiaIKneZ9w-44" target="Y9LZRN9tJQCiaIKneZ9w-48">
          <mxGeometry relative="1" as="geometry" />
        </mxCell>
        <mxCell id="Y9LZRN9tJQCiaIKneZ9w-50" value="是" style="edgeLabel;html=1;align=center;verticalAlign=middle;resizable=0;points=[];" vertex="1" connectable="0" parent="Y9LZRN9tJQCiaIKneZ9w-49">
          <mxGeometry x="-0.2052" y="-4" relative="1" as="geometry">
            <mxPoint as="offset" />
          </mxGeometry>
        </mxCell>
        <mxCell id="Y9LZRN9tJQCiaIKneZ9w-60" style="edgeStyle=orthogonalEdgeStyle;rounded=0;orthogonalLoop=1;jettySize=auto;html=1;exitX=0;exitY=0.5;exitDx=0;exitDy=0;entryX=0.5;entryY=0;entryDx=0;entryDy=0;" edge="1" parent="Y9LZRN9tJQCiaIKneZ9w-4" source="Y9LZRN9tJQCiaIKneZ9w-44" target="Y9LZRN9tJQCiaIKneZ9w-54">
          <mxGeometry relative="1" as="geometry">
            <Array as="points">
              <mxPoint x="10" y="517" />
              <mxPoint x="10" y="780" />
              <mxPoint x="80" y="780" />
            </Array>
          </mxGeometry>
        </mxCell>
        <mxCell id="Y9LZRN9tJQCiaIKneZ9w-61" value="&lt;font style=&quot;font-size: 10px;&quot;&gt;否&lt;/font&gt;" style="edgeLabel;html=1;align=center;verticalAlign=middle;resizable=0;points=[];" vertex="1" connectable="0" parent="Y9LZRN9tJQCiaIKneZ9w-60">
          <mxGeometry x="-0.9482" y="-1" relative="1" as="geometry">
            <mxPoint y="8" as="offset" />
          </mxGeometry>
        </mxCell>
        <mxCell id="Y9LZRN9tJQCiaIKneZ9w-44" value="&lt;span style=&quot;font-size: 12px;&quot;&gt;工作签发人ID不为空&lt;/span&gt;" style="rhombus;whiteSpace=wrap;html=1;rounded=0;shadow=0;labelBackgroundColor=none;strokeWidth=1;fontFamily=Verdana;fontSize=8;align=center;" vertex="1" parent="Y9LZRN9tJQCiaIKneZ9w-4">
          <mxGeometry x="30" y="480" width="100" height="75" as="geometry" />
        </mxCell>
        <mxCell id="Y9LZRN9tJQCiaIKneZ9w-52" style="edgeStyle=orthogonalEdgeStyle;rounded=0;orthogonalLoop=1;jettySize=auto;html=1;exitX=0.5;exitY=1;exitDx=0;exitDy=0;" edge="1" parent="Y9LZRN9tJQCiaIKneZ9w-4" source="Y9LZRN9tJQCiaIKneZ9w-48" target="Y9LZRN9tJQCiaIKneZ9w-51">
          <mxGeometry relative="1" as="geometry" />
        </mxCell>
        <mxCell id="Y9LZRN9tJQCiaIKneZ9w-48" value="&lt;span style=&quot;font-size: 12px;&quot;&gt;获取工作签发人身份证并sm4加密&lt;/span&gt;" style="whiteSpace=wrap;html=1;fontSize=8;fontFamily=Verdana;rounded=0;shadow=0;labelBackgroundColor=none;strokeWidth=1;" vertex="1" parent="Y9LZRN9tJQCiaIKneZ9w-4">
          <mxGeometry x="30" y="600" width="100" height="60" as="geometry" />
        </mxCell>
        <mxCell id="Y9LZRN9tJQCiaIKneZ9w-57" style="edgeStyle=orthogonalEdgeStyle;rounded=0;orthogonalLoop=1;jettySize=auto;html=1;exitX=0.5;exitY=1;exitDx=0;exitDy=0;" edge="1" parent="Y9LZRN9tJQCiaIKneZ9w-4" source="Y9LZRN9tJQCiaIKneZ9w-51" target="Y9LZRN9tJQCiaIKneZ9w-54">
          <mxGeometry relative="1" as="geometry" />
        </mxCell>
        <mxCell id="Y9LZRN9tJQCiaIKneZ9w-51" value="&lt;span style=&quot;font-size: 12px;&quot;&gt;工作签发人身份证密文赋值给工作票对象的对应字段&lt;/span&gt;" style="whiteSpace=wrap;html=1;fontSize=8;fontFamily=Verdana;rounded=0;shadow=0;labelBackgroundColor=none;strokeWidth=1;" vertex="1" parent="Y9LZRN9tJQCiaIKneZ9w-4">
          <mxGeometry x="30" y="700" width="100" height="60" as="geometry" />
        </mxCell>
        <mxCell id="Y9LZRN9tJQCiaIKneZ9w-58" style="edgeStyle=orthogonalEdgeStyle;rounded=0;orthogonalLoop=1;jettySize=auto;html=1;exitX=0.5;exitY=1;exitDx=0;exitDy=0;entryX=0.5;entryY=0;entryDx=0;entryDy=0;" edge="1" parent="Y9LZRN9tJQCiaIKneZ9w-4" source="Y9LZRN9tJQCiaIKneZ9w-54" target="Y9LZRN9tJQCiaIKneZ9w-55">
          <mxGeometry relative="1" as="geometry" />
        </mxCell>
        <mxCell id="Y9LZRN9tJQCiaIKneZ9w-62" value="&lt;font style=&quot;font-size: 10px;&quot;&gt;是&lt;/font&gt;" style="edgeLabel;html=1;align=center;verticalAlign=middle;resizable=0;points=[];" vertex="1" connectable="0" parent="Y9LZRN9tJQCiaIKneZ9w-58">
          <mxGeometry x="-0.2199" y="-1" relative="1" as="geometry">
            <mxPoint as="offset" />
          </mxGeometry>
        </mxCell>
        <mxCell id="Y9LZRN9tJQCiaIKneZ9w-64" style="edgeStyle=orthogonalEdgeStyle;rounded=0;orthogonalLoop=1;jettySize=auto;html=1;exitX=0;exitY=0.5;exitDx=0;exitDy=0;" edge="1" parent="Y9LZRN9tJQCiaIKneZ9w-4" source="Y9LZRN9tJQCiaIKneZ9w-54">
          <mxGeometry relative="1" as="geometry">
            <mxPoint x="80" y="1120" as="targetPoint" />
            <Array as="points">
              <mxPoint x="10" y="838" />
              <mxPoint x="10" y="1120" />
            </Array>
          </mxGeometry>
        </mxCell>
        <mxCell id="Y9LZRN9tJQCiaIKneZ9w-54" value="&lt;span style=&quot;font-size: 12px;&quot;&gt;工作许可人ID不为空&lt;/span&gt;" style="rhombus;whiteSpace=wrap;html=1;rounded=0;shadow=0;labelBackgroundColor=none;strokeWidth=1;fontFamily=Verdana;fontSize=8;align=center;" vertex="1" parent="Y9LZRN9tJQCiaIKneZ9w-4">
          <mxGeometry x="30" y="800" width="100" height="75" as="geometry" />
        </mxCell>
        <mxCell id="Y9LZRN9tJQCiaIKneZ9w-59" style="edgeStyle=orthogonalEdgeStyle;rounded=0;orthogonalLoop=1;jettySize=auto;html=1;exitX=0.5;exitY=1;exitDx=0;exitDy=0;entryX=0.5;entryY=0;entryDx=0;entryDy=0;" edge="1" parent="Y9LZRN9tJQCiaIKneZ9w-4" source="Y9LZRN9tJQCiaIKneZ9w-55" target="Y9LZRN9tJQCiaIKneZ9w-56">
          <mxGeometry relative="1" as="geometry" />
        </mxCell>
        <mxCell id="Y9LZRN9tJQCiaIKneZ9w-55" value="&lt;span style=&quot;font-size: 12px;&quot;&gt;获取工作许可人身份证并sm4加密&lt;/span&gt;" style="whiteSpace=wrap;html=1;fontSize=8;fontFamily=Verdana;rounded=0;shadow=0;labelBackgroundColor=none;strokeWidth=1;" vertex="1" parent="Y9LZRN9tJQCiaIKneZ9w-4">
          <mxGeometry x="30" y="920" width="100" height="60" as="geometry" />
        </mxCell>
        <mxCell id="Y9LZRN9tJQCiaIKneZ9w-56" value="&lt;span style=&quot;font-size: 12px;&quot;&gt;工作许可人身份证&lt;/span&gt;&lt;span style=&quot;font-size: 12px;&quot;&gt;密文赋值给工作票对象的对应字段&lt;/span&gt;" style="whiteSpace=wrap;html=1;fontSize=8;fontFamily=Verdana;rounded=0;shadow=0;labelBackgroundColor=none;strokeWidth=1;" vertex="1" parent="Y9LZRN9tJQCiaIKneZ9w-4">
          <mxGeometry x="30" y="1020" width="100" height="60" as="geometry" />
        </mxCell>
        <mxCell id="Y9LZRN9tJQCiaIKneZ9w-9" value="查询工作票子表数据" style="swimlane;html=1;startSize=20;" vertex="1" parent="Y9LZRN9tJQCiaIKneZ9w-1">
          <mxGeometry x="320" y="20" width="160" height="1220" as="geometry" />
        </mxCell>
        <mxCell id="Y9LZRN9tJQCiaIKneZ9w-10" style="edgeStyle=orthogonalEdgeStyle;rounded=0;orthogonalLoop=1;jettySize=auto;html=1;exitX=0.5;exitY=1;exitDx=0;exitDy=0;entryX=0.5;entryY=0;entryDx=0;entryDy=0;" edge="1" parent="Y9LZRN9tJQCiaIKneZ9w-9">
          <mxGeometry relative="1" as="geometry">
            <mxPoint x="80" y="317.5" as="sourcePoint" />
          </mxGeometry>
        </mxCell>
        <mxCell id="Y9LZRN9tJQCiaIKneZ9w-11" style="edgeStyle=orthogonalEdgeStyle;rounded=0;orthogonalLoop=1;jettySize=auto;html=1;exitX=0.5;exitY=1;exitDx=0;exitDy=0;entryX=0.5;entryY=0;entryDx=0;entryDy=0;" edge="1" parent="Y9LZRN9tJQCiaIKneZ9w-9">
          <mxGeometry relative="1" as="geometry">
            <mxPoint x="80" y="420" as="sourcePoint" />
          </mxGeometry>
        </mxCell>
        <mxCell id="Y9LZRN9tJQCiaIKneZ9w-12" style="edgeStyle=orthogonalEdgeStyle;rounded=0;orthogonalLoop=1;jettySize=auto;html=1;exitX=0.5;exitY=1;exitDx=0;exitDy=0;entryX=0.5;entryY=0;entryDx=0;entryDy=0;" edge="1" parent="Y9LZRN9tJQCiaIKneZ9w-9">
          <mxGeometry relative="1" as="geometry">
            <mxPoint x="80" y="520" as="sourcePoint" />
          </mxGeometry>
        </mxCell>
        <mxCell id="Y9LZRN9tJQCiaIKneZ9w-13" style="edgeStyle=orthogonalEdgeStyle;rounded=0;orthogonalLoop=1;jettySize=auto;html=1;exitX=0.5;exitY=1;exitDx=0;exitDy=0;entryX=0.5;entryY=0;entryDx=0;entryDy=0;" edge="1" parent="Y9LZRN9tJQCiaIKneZ9w-9" source="Y9LZRN9tJQCiaIKneZ9w-14" target="Y9LZRN9tJQCiaIKneZ9w-16">
          <mxGeometry relative="1" as="geometry" />
        </mxCell>
        <mxCell id="Y9LZRN9tJQCiaIKneZ9w-14" value="&lt;span style=&quot;font-size: 12px;&quot;&gt;附票数量查询并赋值给工作票对象对应字段&lt;/span&gt;" style="whiteSpace=wrap;html=1;fontSize=8;fontFamily=Verdana;rounded=0;shadow=0;labelBackgroundColor=none;strokeWidth=1;" vertex="1" parent="Y9LZRN9tJQCiaIKneZ9w-9">
          <mxGeometry x="30" y="170" width="100" height="60" as="geometry" />
        </mxCell>
        <mxCell id="Y9LZRN9tJQCiaIKneZ9w-15" style="edgeStyle=orthogonalEdgeStyle;rounded=0;orthogonalLoop=1;jettySize=auto;html=1;exitX=0.5;exitY=1;exitDx=0;exitDy=0;entryX=0.5;entryY=0;entryDx=0;entryDy=0;" edge="1" parent="Y9LZRN9tJQCiaIKneZ9w-9" source="Y9LZRN9tJQCiaIKneZ9w-16" target="Y9LZRN9tJQCiaIKneZ9w-17">
          <mxGeometry relative="1" as="geometry" />
        </mxCell>
        <mxCell id="Y9LZRN9tJQCiaIKneZ9w-16" value="&lt;span style=&quot;font-size: 12px;&quot;&gt;子表数据查询&lt;/span&gt;" style="whiteSpace=wrap;html=1;fontSize=8;fontFamily=Verdana;rounded=0;shadow=0;labelBackgroundColor=none;strokeWidth=1;" vertex="1" parent="Y9LZRN9tJQCiaIKneZ9w-9">
          <mxGeometry x="30" y="270" width="100" height="60" as="geometry" />
        </mxCell>
        <mxCell id="Y9LZRN9tJQCiaIKneZ9w-70" style="edgeStyle=orthogonalEdgeStyle;rounded=0;orthogonalLoop=1;jettySize=auto;html=1;exitX=0.5;exitY=1;exitDx=0;exitDy=0;entryX=0.5;entryY=0;entryDx=0;entryDy=0;" edge="1" parent="Y9LZRN9tJQCiaIKneZ9w-9" source="Y9LZRN9tJQCiaIKneZ9w-17" target="Y9LZRN9tJQCiaIKneZ9w-18">
          <mxGeometry relative="1" as="geometry" />
        </mxCell>
        <mxCell id="Y9LZRN9tJQCiaIKneZ9w-17" value="&lt;span style=&quot;font-size: 12px;&quot;&gt;工作票-工作成员的工作年限、是否信任、身份证处理&lt;/span&gt;" style="whiteSpace=wrap;html=1;fontSize=8;fontFamily=Verdana;rounded=0;shadow=0;labelBackgroundColor=none;strokeWidth=1;" vertex="1" parent="Y9LZRN9tJQCiaIKneZ9w-9">
          <mxGeometry x="30" y="370" width="100" height="60" as="geometry" />
        </mxCell>
        <mxCell id="Y9LZRN9tJQCiaIKneZ9w-71" style="edgeStyle=orthogonalEdgeStyle;rounded=0;orthogonalLoop=1;jettySize=auto;html=1;exitX=0.5;exitY=1;exitDx=0;exitDy=0;entryX=0.5;entryY=0;entryDx=0;entryDy=0;" edge="1" parent="Y9LZRN9tJQCiaIKneZ9w-9" source="Y9LZRN9tJQCiaIKneZ9w-18" target="Y9LZRN9tJQCiaIKneZ9w-69">
          <mxGeometry relative="1" as="geometry" />
        </mxCell>
        <mxCell id="Y9LZRN9tJQCiaIKneZ9w-18" value="&lt;span style=&quot;font-size: 12px;&quot;&gt;工作票-工作人员变动数据中身份证加密处理&lt;/span&gt;" style="whiteSpace=wrap;html=1;fontSize=8;fontFamily=Verdana;rounded=0;shadow=0;labelBackgroundColor=none;strokeWidth=1;" vertex="1" parent="Y9LZRN9tJQCiaIKneZ9w-9">
          <mxGeometry x="30" y="470" width="100" height="60" as="geometry" />
        </mxCell>
        <mxCell id="Y9LZRN9tJQCiaIKneZ9w-73" style="edgeStyle=orthogonalEdgeStyle;rounded=0;orthogonalLoop=1;jettySize=auto;html=1;exitX=0.5;exitY=1;exitDx=0;exitDy=0;entryX=0.5;entryY=0;entryDx=0;entryDy=0;" edge="1" parent="Y9LZRN9tJQCiaIKneZ9w-9" source="Y9LZRN9tJQCiaIKneZ9w-69" target="Y9LZRN9tJQCiaIKneZ9w-72">
          <mxGeometry relative="1" as="geometry" />
        </mxCell>
        <mxCell id="Y9LZRN9tJQCiaIKneZ9w-69" value="&lt;span style=&quot;font-size: 12px;&quot;&gt;作业人员进出场数据组装&lt;/span&gt;" style="whiteSpace=wrap;html=1;fontSize=8;fontFamily=Verdana;rounded=0;shadow=0;labelBackgroundColor=none;strokeWidth=1;" vertex="1" parent="Y9LZRN9tJQCiaIKneZ9w-9">
          <mxGeometry x="30" y="570" width="100" height="60" as="geometry" />
        </mxCell>
        <mxCell id="Y9LZRN9tJQCiaIKneZ9w-72" value="&lt;span style=&quot;font-size: 12px;&quot;&gt;工作票-工作任务的设备类型转义处理后设置设备类型名称&lt;/span&gt;" style="whiteSpace=wrap;html=1;fontSize=8;fontFamily=Verdana;rounded=0;shadow=0;labelBackgroundColor=none;strokeWidth=1;" vertex="1" parent="Y9LZRN9tJQCiaIKneZ9w-9">
          <mxGeometry x="30" y="670" width="100" height="60" as="geometry" />
        </mxCell>
        <mxCell id="Y9LZRN9tJQCiaIKneZ9w-20" value="返回数据处理" style="swimlane;html=1;startSize=20;" vertex="1" parent="Y9LZRN9tJQCiaIKneZ9w-1">
          <mxGeometry x="480" y="20" width="160" height="1220" as="geometry" />
        </mxCell>
        <mxCell id="Y9LZRN9tJQCiaIKneZ9w-21" style="edgeStyle=orthogonalEdgeStyle;rounded=0;orthogonalLoop=1;jettySize=auto;html=1;exitX=0.5;exitY=1;exitDx=0;exitDy=0;entryX=0.5;entryY=0;entryDx=0;entryDy=0;" edge="1" parent="Y9LZRN9tJQCiaIKneZ9w-20" source="Y9LZRN9tJQCiaIKneZ9w-22" target="Y9LZRN9tJQCiaIKneZ9w-23">
          <mxGeometry relative="1" as="geometry" />
        </mxCell>
        <mxCell id="Y9LZRN9tJQCiaIKneZ9w-22" value="&lt;span style=&quot;font-size: 12px;&quot;&gt;字典值查询&lt;/span&gt;" style="whiteSpace=wrap;html=1;fontSize=8;fontFamily=Verdana;rounded=0;shadow=0;labelBackgroundColor=none;strokeWidth=1;" vertex="1" parent="Y9LZRN9tJQCiaIKneZ9w-20">
          <mxGeometry x="30" y="170" width="100" height="60" as="geometry" />
        </mxCell>
        <mxCell id="Y9LZRN9tJQCiaIKneZ9w-75" style="edgeStyle=orthogonalEdgeStyle;rounded=0;orthogonalLoop=1;jettySize=auto;html=1;exitX=0.5;exitY=1;exitDx=0;exitDy=0;entryX=0.5;entryY=0;entryDx=0;entryDy=0;" edge="1" parent="Y9LZRN9tJQCiaIKneZ9w-20" source="Y9LZRN9tJQCiaIKneZ9w-23" target="Y9LZRN9tJQCiaIKneZ9w-74">
          <mxGeometry relative="1" as="geometry" />
        </mxCell>
        <mxCell id="Y9LZRN9tJQCiaIKneZ9w-23" value="&lt;span style=&quot;font-size: 12px;&quot;&gt;字典码值转义并赋值给工作票字段&lt;/span&gt;" style="whiteSpace=wrap;html=1;fontSize=8;fontFamily=Verdana;rounded=0;shadow=0;labelBackgroundColor=none;strokeWidth=1;" vertex="1" parent="Y9LZRN9tJQCiaIKneZ9w-20">
          <mxGeometry x="30" y="270" width="100" height="60" as="geometry" />
        </mxCell>
        <mxCell id="Y9LZRN9tJQCiaIKneZ9w-77" style="edgeStyle=orthogonalEdgeStyle;rounded=0;orthogonalLoop=1;jettySize=auto;html=1;exitX=0.5;exitY=1;exitDx=0;exitDy=0;entryX=0.5;entryY=0;entryDx=0;entryDy=0;" edge="1" parent="Y9LZRN9tJQCiaIKneZ9w-20" source="Y9LZRN9tJQCiaIKneZ9w-74" target="Y9LZRN9tJQCiaIKneZ9w-76">
          <mxGeometry relative="1" as="geometry" />
        </mxCell>
        <mxCell id="Y9LZRN9tJQCiaIKneZ9w-74" value="&lt;span style=&quot;font-size: 12px;&quot;&gt;查询工作票-分组记录关联数据设置打包分组ID、打包分组名称&lt;/span&gt;" style="whiteSpace=wrap;html=1;fontSize=8;fontFamily=Verdana;rounded=0;shadow=0;labelBackgroundColor=none;strokeWidth=1;" vertex="1" parent="Y9LZRN9tJQCiaIKneZ9w-20">
          <mxGeometry x="30" y="370" width="100" height="60" as="geometry" />
        </mxCell>
        <mxCell id="Y9LZRN9tJQCiaIKneZ9w-79" style="edgeStyle=orthogonalEdgeStyle;rounded=0;orthogonalLoop=1;jettySize=auto;html=1;exitX=0.5;exitY=1;exitDx=0;exitDy=0;entryX=0.5;entryY=0;entryDx=0;entryDy=0;" edge="1" parent="Y9LZRN9tJQCiaIKneZ9w-20" source="Y9LZRN9tJQCiaIKneZ9w-76" target="Y9LZRN9tJQCiaIKneZ9w-78">
          <mxGeometry relative="1" as="geometry" />
        </mxCell>
        <mxCell id="Y9LZRN9tJQCiaIKneZ9w-76" value="&lt;span style=&quot;font-size: 12px;&quot;&gt;处理收开工数据&lt;/span&gt;" style="whiteSpace=wrap;html=1;fontSize=8;fontFamily=Verdana;rounded=0;shadow=0;labelBackgroundColor=none;strokeWidth=1;" vertex="1" parent="Y9LZRN9tJQCiaIKneZ9w-20">
          <mxGeometry x="30" y="470" width="100" height="60" as="geometry" />
        </mxCell>
        <mxCell id="Y9LZRN9tJQCiaIKneZ9w-81" style="edgeStyle=orthogonalEdgeStyle;rounded=0;orthogonalLoop=1;jettySize=auto;html=1;exitX=0.5;exitY=1;exitDx=0;exitDy=0;" edge="1" parent="Y9LZRN9tJQCiaIKneZ9w-20" source="Y9LZRN9tJQCiaIKneZ9w-78" target="Y9LZRN9tJQCiaIKneZ9w-80">
          <mxGeometry relative="1" as="geometry" />
        </mxCell>
        <mxCell id="Y9LZRN9tJQCiaIKneZ9w-78" value="&lt;span style=&quot;font-size: 12px;&quot;&gt;带电信息处理&lt;/span&gt;" style="whiteSpace=wrap;html=1;fontSize=8;fontFamily=Verdana;rounded=0;shadow=0;labelBackgroundColor=none;strokeWidth=1;" vertex="1" parent="Y9LZRN9tJQCiaIKneZ9w-20">
          <mxGeometry x="30" y="570" width="100" height="60" as="geometry" />
        </mxCell>
        <mxCell id="Y9LZRN9tJQCiaIKneZ9w-83" style="edgeStyle=orthogonalEdgeStyle;rounded=0;orthogonalLoop=1;jettySize=auto;html=1;exitX=0.5;exitY=1;exitDx=0;exitDy=0;entryX=0.5;entryY=0;entryDx=0;entryDy=0;" edge="1" parent="Y9LZRN9tJQCiaIKneZ9w-20" source="Y9LZRN9tJQCiaIKneZ9w-80" target="Y9LZRN9tJQCiaIKneZ9w-82">
          <mxGeometry relative="1" as="geometry" />
        </mxCell>
        <mxCell id="Y9LZRN9tJQCiaIKneZ9w-80" value="&lt;span style=&quot;font-size: 12px;&quot;&gt;工作票-网省个性化工作票差异字段数据处理&lt;/span&gt;" style="whiteSpace=wrap;html=1;fontSize=8;fontFamily=Verdana;rounded=0;shadow=0;labelBackgroundColor=none;strokeWidth=1;" vertex="1" parent="Y9LZRN9tJQCiaIKneZ9w-20">
          <mxGeometry x="30" y="670" width="100" height="60" as="geometry" />
        </mxCell>
        <mxCell id="Y9LZRN9tJQCiaIKneZ9w-85" style="edgeStyle=orthogonalEdgeStyle;rounded=0;orthogonalLoop=1;jettySize=auto;html=1;exitX=0.5;exitY=1;exitDx=0;exitDy=0;entryX=0.5;entryY=0;entryDx=0;entryDy=0;" edge="1" parent="Y9LZRN9tJQCiaIKneZ9w-20" source="Y9LZRN9tJQCiaIKneZ9w-82" target="Y9LZRN9tJQCiaIKneZ9w-84">
          <mxGeometry relative="1" as="geometry" />
        </mxCell>
        <mxCell id="Y9LZRN9tJQCiaIKneZ9w-82" value="&lt;span style=&quot;font-size: 12px;&quot;&gt;工作人员变更信息包装处理&lt;/span&gt;" style="whiteSpace=wrap;html=1;fontSize=8;fontFamily=Verdana;rounded=0;shadow=0;labelBackgroundColor=none;strokeWidth=1;" vertex="1" parent="Y9LZRN9tJQCiaIKneZ9w-20">
          <mxGeometry x="30" y="770" width="100" height="60" as="geometry" />
        </mxCell>
        <mxCell id="Y9LZRN9tJQCiaIKneZ9w-88" style="edgeStyle=orthogonalEdgeStyle;rounded=0;orthogonalLoop=1;jettySize=auto;html=1;exitX=0.5;exitY=1;exitDx=0;exitDy=0;entryX=0.5;entryY=0;entryDx=0;entryDy=0;" edge="1" parent="Y9LZRN9tJQCiaIKneZ9w-20" source="Y9LZRN9tJQCiaIKneZ9w-84" target="Y9LZRN9tJQCiaIKneZ9w-87">
          <mxGeometry relative="1" as="geometry" />
        </mxCell>
        <mxCell id="Y9LZRN9tJQCiaIKneZ9w-84" value="&lt;span style=&quot;font-size: 12px;&quot;&gt;人员变更记录数据拆分&lt;/span&gt;" style="whiteSpace=wrap;html=1;fontSize=8;fontFamily=Verdana;rounded=0;shadow=0;labelBackgroundColor=none;strokeWidth=1;" vertex="1" parent="Y9LZRN9tJQCiaIKneZ9w-20">
          <mxGeometry x="30" y="870" width="100" height="60" as="geometry" />
        </mxCell>
        <mxCell id="Y9LZRN9tJQCiaIKneZ9w-87" value="&lt;span style=&quot;font-size: 12px;&quot;&gt;成功返回&lt;/span&gt;" style="whiteSpace=wrap;html=1;fontSize=8;fontFamily=Verdana;rounded=0;shadow=0;labelBackgroundColor=none;strokeWidth=1;" vertex="1" parent="Y9LZRN9tJQCiaIKneZ9w-20">
          <mxGeometry x="30" y="1140" width="100" height="60" as="geometry" />
        </mxCell>
        <mxCell id="Y9LZRN9tJQCiaIKneZ9w-29" style="edgeStyle=orthogonalEdgeStyle;rounded=0;orthogonalLoop=1;jettySize=auto;html=1;entryX=0.5;entryY=0;entryDx=0;entryDy=0;exitX=0.5;exitY=1;exitDx=0;exitDy=0;" edge="1" parent="Y9LZRN9tJQCiaIKneZ9w-1" source="Y9LZRN9tJQCiaIKneZ9w-72" target="Y9LZRN9tJQCiaIKneZ9w-22">
          <mxGeometry relative="1" as="geometry">
            <Array as="points">
              <mxPoint x="400" y="790" />
              <mxPoint x="470" y="790" />
              <mxPoint x="470" y="150" />
              <mxPoint x="560" y="150" />
            </Array>
            <mxPoint x="400" y="760" as="sourcePoint" />
          </mxGeometry>
        </mxCell>
        <mxCell id="Y9LZRN9tJQCiaIKneZ9w-53" style="edgeStyle=orthogonalEdgeStyle;rounded=0;orthogonalLoop=1;jettySize=auto;html=1;exitX=0.5;exitY=1;exitDx=0;exitDy=0;entryX=0.5;entryY=0;entryDx=0;entryDy=0;" edge="1" parent="Y9LZRN9tJQCiaIKneZ9w-1" source="Y9LZRN9tJQCiaIKneZ9w-66" target="Y9LZRN9tJQCiaIKneZ9w-38">
          <mxGeometry relative="1" as="geometry">
            <Array as="points">
              <mxPoint x="70" y="380" />
              <mxPoint x="150" y="380" />
              <mxPoint x="150" y="140" />
              <mxPoint x="240" y="140" />
            </Array>
          </mxGeometry>
        </mxCell>
        <mxCell id="Y9LZRN9tJQCiaIKneZ9w-63" style="edgeStyle=orthogonalEdgeStyle;rounded=0;orthogonalLoop=1;jettySize=auto;html=1;exitX=0.5;exitY=1;exitDx=0;exitDy=0;entryX=0.5;entryY=0;entryDx=0;entryDy=0;" edge="1" parent="Y9LZRN9tJQCiaIKneZ9w-1" source="Y9LZRN9tJQCiaIKneZ9w-56" target="Y9LZRN9tJQCiaIKneZ9w-14">
          <mxGeometry relative="1" as="geometry">
            <Array as="points">
              <mxPoint x="240" y="1140" />
              <mxPoint x="310" y="1140" />
              <mxPoint x="310" y="140" />
              <mxPoint x="400" y="140" />
            </Array>
          </mxGeometry>
        </mxCell>
      </root>
    </mxGraphModel>
  </diagram>
</mxfile>
